<svg width="425" height="84" viewBox="0 0 425 84" fill="none" xmlns="http://www.w3.org/2000/svg">
<g filter="url(#filter0_d)">
<path d="M22.6016 46.4688L17.1172 52.375V67H6.57031V15.8125H17.1172V39.0156L21.7578 32.6523L34.8008 15.8125H47.7734L29.5977 38.5586L48.3008 67H35.75L22.6016 46.4688ZM49.0391 47.6289C49.0391 43.8555 49.7656 40.4922 51.2188 37.5391C52.6719 34.5859 54.7578 32.3008 57.4766 30.6836C60.2188 29.0664 63.3945 28.2578 67.0039 28.2578C72.1367 28.2578 76.3203 29.8281 79.5547 32.9688C82.8125 36.1094 84.6289 40.375 85.0039 45.7656L85.0742 48.3672C85.0742 54.2031 83.4453 58.8906 80.1875 62.4297C76.9297 65.9453 72.5586 67.7031 67.0742 67.7031C61.5898 67.7031 57.207 65.9453 53.9258 62.4297C50.668 58.9141 49.0391 54.1328 49.0391 48.0859V47.6289ZM59.1992 48.3672C59.1992 51.9766 59.8789 54.7422 61.2383 56.6641C62.5977 58.5625 64.543 59.5117 67.0742 59.5117C69.5352 59.5117 71.457 58.5742 72.8398 56.6992C74.2227 54.8008 74.9141 51.7773 74.9141 47.6289C74.9141 44.0898 74.2227 41.3477 72.8398 39.4023C71.457 37.457 69.5117 36.4844 67.0039 36.4844C64.5195 36.4844 62.5977 37.457 61.2383 39.4023C59.8789 41.3242 59.1992 44.3125 59.1992 48.3672ZM103.496 19.6094V28.9609H110V36.4141H103.496V55.3984C103.496 56.8047 103.766 57.8125 104.305 58.4219C104.844 59.0312 105.875 59.3359 107.398 59.3359C108.523 59.3359 109.52 59.2539 110.387 59.0898V66.7891C108.395 67.3984 106.344 67.7031 104.234 67.7031C97.1094 67.7031 93.4766 64.1055 93.3359 56.9102V36.4141H87.7812V28.9609H93.3359V19.6094H103.496ZM113.023 47.6289C113.023 43.8555 113.75 40.4922 115.203 37.5391C116.656 34.5859 118.742 32.3008 121.461 30.6836C124.203 29.0664 127.379 28.2578 130.988 28.2578C136.121 28.2578 140.305 29.8281 143.539 32.9688C146.797 36.1094 148.613 40.375 148.988 45.7656L149.059 48.3672C149.059 54.2031 147.43 58.8906 144.172 62.4297C140.914 65.9453 136.543 67.7031 131.059 67.7031C125.574 67.7031 121.191 65.9453 117.91 62.4297C114.652 58.9141 113.023 54.1328 113.023 48.0859V47.6289ZM123.184 48.3672C123.184 51.9766 123.863 54.7422 125.223 56.6641C126.582 58.5625 128.527 59.5117 131.059 59.5117C133.52 59.5117 135.441 58.5742 136.824 56.6992C138.207 54.8008 138.898 51.7773 138.898 47.6289C138.898 44.0898 138.207 41.3477 136.824 39.4023C135.441 37.457 133.496 36.4844 130.988 36.4844C128.504 36.4844 126.582 37.457 125.223 39.4023C123.863 41.3242 123.184 44.3125 123.184 48.3672ZM315.172 62.0078C315.172 60.3906 315.711 59.0781 316.789 58.0703C317.891 57.0625 319.262 56.5586 320.902 56.5586C322.566 56.5586 323.938 57.0625 325.016 58.0703C326.117 59.0781 326.668 60.3906 326.668 62.0078C326.668 63.6016 326.129 64.9023 325.051 65.9102C323.973 66.8945 322.59 67.3867 320.902 67.3867C319.238 67.3867 317.867 66.8945 316.789 65.9102C315.711 64.9023 315.172 63.6016 315.172 62.0078Z" fill="#4971FF"/>
<path d="M157.355 67V15.8125H174.09C179.645 15.8125 183.816 16.9609 186.605 19.2578C189.418 21.5547 190.824 24.9531 190.824 29.4531C190.824 31.8438 190.145 33.9648 188.785 35.8164C187.426 37.6445 185.574 39.0625 183.23 40.0703C185.996 40.8438 188.176 42.3203 189.77 44.5C191.387 46.6562 192.195 49.2344 192.195 52.2344C192.195 56.8281 190.707 60.4375 187.73 63.0625C184.754 65.6875 180.547 67 175.109 67H157.355ZM164.105 43.0586V61.4805H175.25C178.391 61.4805 180.863 60.6719 182.668 59.0547C184.496 57.4141 185.41 55.1641 185.41 52.3047C185.41 46.1406 182.059 43.0586 175.355 43.0586H164.105ZM164.105 37.6445H174.301C177.254 37.6445 179.609 36.9062 181.367 35.4297C183.148 33.9531 184.039 31.9492 184.039 29.418C184.039 26.6055 183.219 24.5664 181.578 23.3008C179.938 22.0117 177.441 21.3672 174.09 21.3672H164.105V37.6445ZM224.68 67C224.305 66.25 224 64.9141 223.766 62.9922C220.742 66.1328 217.133 67.7031 212.938 67.7031C209.188 67.7031 206.105 66.6484 203.691 64.5391C201.301 62.4062 200.105 59.7109 200.105 56.4531C200.105 52.4922 201.605 49.4219 204.605 47.2422C207.629 45.0391 211.871 43.9375 217.332 43.9375H223.66V40.9492C223.66 38.6758 222.98 36.8711 221.621 35.5352C220.262 34.1758 218.258 33.4961 215.609 33.4961C213.289 33.4961 211.344 34.082 209.773 35.2539C208.203 36.4258 207.418 37.8438 207.418 39.5078H200.879C200.879 37.6094 201.547 35.7812 202.883 34.0234C204.242 32.2422 206.07 30.8359 208.367 29.8047C210.688 28.7734 213.23 28.2578 215.996 28.2578C220.379 28.2578 223.812 29.3594 226.297 31.5625C228.781 33.7422 230.07 36.7539 230.164 40.5977V58.1055C230.164 61.5977 230.609 64.375 231.5 66.4375V67H224.68ZM213.887 62.043C215.926 62.043 217.859 61.5156 219.688 60.4609C221.516 59.4062 222.84 58.0352 223.66 56.3477V48.543H218.562C210.594 48.543 206.609 50.875 206.609 55.5391C206.609 57.5781 207.289 59.1719 208.648 60.3203C210.008 61.4688 211.754 62.043 213.887 62.043ZM262.508 56.9102C262.508 55.1523 261.84 53.793 260.504 52.832C259.191 51.8477 256.883 51.0039 253.578 50.3008C250.297 49.5977 247.684 48.7539 245.738 47.7695C243.816 46.7852 242.387 45.6133 241.449 44.2539C240.535 42.8945 240.078 41.2773 240.078 39.4023C240.078 36.2852 241.391 33.6484 244.016 31.4922C246.664 29.3359 250.039 28.2578 254.141 28.2578C258.453 28.2578 261.945 29.3711 264.617 31.5977C267.312 33.8242 268.66 36.6719 268.66 40.1406H262.121C262.121 38.3594 261.359 36.8242 259.836 35.5352C258.336 34.2461 256.438 33.6016 254.141 33.6016C251.773 33.6016 249.922 34.1172 248.586 35.1484C247.25 36.1797 246.582 37.5273 246.582 39.1914C246.582 40.7617 247.203 41.9453 248.445 42.7422C249.688 43.5391 251.926 44.3008 255.16 45.0273C258.418 45.7539 261.055 46.6211 263.07 47.6289C265.086 48.6367 266.574 49.8555 267.535 51.2852C268.52 52.6914 269.012 54.4141 269.012 56.4531C269.012 59.8516 267.652 62.582 264.934 64.6445C262.215 66.6836 258.688 67.7031 254.352 67.7031C251.305 67.7031 248.609 67.1641 246.266 66.0859C243.922 65.0078 242.082 63.5078 240.746 61.5859C239.434 59.6406 238.777 57.543 238.777 55.293H245.281C245.398 57.4727 246.266 59.207 247.883 60.4961C249.523 61.7617 251.68 62.3945 254.352 62.3945C256.812 62.3945 258.781 61.9023 260.258 60.918C261.758 59.9102 262.508 58.5742 262.508 56.9102ZM293.27 67.7031C288.113 67.7031 283.918 66.0156 280.684 62.6406C277.449 59.2422 275.832 54.707 275.832 49.0352V47.8398C275.832 44.0664 276.547 40.7031 277.977 37.75C279.43 34.7734 281.445 32.4531 284.023 30.7891C286.625 29.1016 289.438 28.2578 292.461 28.2578C297.406 28.2578 301.25 29.8867 303.992 33.1445C306.734 36.4023 308.105 41.0664 308.105 47.1367V49.8438H282.336C282.43 53.5938 283.52 56.6289 285.605 58.9492C287.715 61.2461 290.387 62.3945 293.621 62.3945C295.918 62.3945 297.863 61.9258 299.457 60.9883C301.051 60.0508 302.445 58.8086 303.641 57.2617L307.613 60.3555C304.426 65.2539 299.645 67.7031 293.27 67.7031ZM292.461 33.6016C289.836 33.6016 287.633 34.5625 285.852 36.4844C284.07 38.3828 282.969 41.0547 282.547 44.5H301.602V44.0078C301.414 40.7031 300.523 38.1484 298.93 36.3438C297.336 34.5156 295.18 33.6016 292.461 33.6016ZM356.41 46.293H344.387V67H337.602V15.8125H354.547C360.312 15.8125 364.742 17.125 367.836 19.75C370.953 22.375 372.512 26.1953 372.512 31.2109C372.512 34.3984 371.645 37.1758 369.91 39.543C368.199 41.9102 365.809 43.6797 362.738 44.8516L374.762 66.5781V67H367.52L356.41 46.293ZM344.387 40.7734H354.758C358.109 40.7734 360.77 39.9062 362.738 38.1719C364.73 36.4375 365.727 34.1172 365.727 31.2109C365.727 28.0469 364.777 25.6211 362.879 23.9336C361.004 22.2461 358.285 21.3906 354.723 21.3672H344.387V40.7734ZM418.039 15.8125V50.6172C418.016 55.4453 416.492 59.3945 413.469 62.4648C410.469 65.5352 406.391 67.2578 401.234 67.6328L399.441 67.7031C393.84 67.7031 389.375 66.1914 386.047 63.168C382.719 60.1445 381.031 55.9844 380.984 50.6875V15.8125H387.664V50.4766C387.664 54.1797 388.684 57.0625 390.723 59.125C392.762 61.1641 395.668 62.1836 399.441 62.1836C403.262 62.1836 406.18 61.1641 408.195 59.125C410.234 57.0859 411.254 54.2148 411.254 50.5117V15.8125H418.039Z" fill="white"/>
</g>
<defs>
<filter id="filter0_d" x="-4" y="-2" width="433" height="96" filterUnits="userSpaceOnUse" color-interpolation-filters="sRGB">
<feFlood flood-opacity="0" result="BackgroundImageFix"/>
<feColorMatrix in="SourceAlpha" type="matrix" values="0 0 0 0 0 0 0 0 0 0 0 0 0 0 0 0 0 0 127 0"/>
<feOffset dy="4"/>
<feGaussianBlur stdDeviation="3"/>
<feColorMatrix type="matrix" values="0 0 0 0 0.341667 0 0 0 0 0.341667 0 0 0 0 0.341667 0 0 0 0.28 0"/>
<feBlend mode="normal" in2="BackgroundImageFix" result="effect1_dropShadow"/>
<feBlend mode="normal" in="SourceGraphic" in2="effect1_dropShadow" result="shape"/>
</filter>
</defs>
</svg>
